<mxfile host="app.diagrams.net" modified="2024-07-18T20:07:58.043Z" agent="Mozilla/5.0 (Windows NT 10.0; Win64; x64) AppleWebKit/537.36 (KHTML, like Gecko) Chrome/126.0.0.0 Safari/537.36" etag="IN-OZc-p3dylfdMVvJSm" version="24.7.1" type="device">
  <diagram name="Página-1" id="cmUQ3-MAQE7MGW4MCoc2">
    <mxGraphModel dx="1862" dy="654" grid="1" gridSize="10" guides="1" tooltips="1" connect="1" arrows="1" fold="1" page="1" pageScale="1" pageWidth="827" pageHeight="1169" math="0" shadow="0">
      <root>
        <mxCell id="0" />
        <mxCell id="1" parent="0" />
        <mxCell id="uAOBnJKsqgyrsefBXau2-10" value="" style="rounded=1;whiteSpace=wrap;html=1;shadow=0;fillColor=#001D99;" parent="1" vertex="1">
          <mxGeometry x="250" y="95" width="250" height="65" as="geometry" />
        </mxCell>
        <mxCell id="uAOBnJKsqgyrsefBXau2-1" value="" style="ellipse;whiteSpace=wrap;html=1;aspect=fixed;fillColor=#0B0050;strokeColor=#190BDA;" parent="1" vertex="1">
          <mxGeometry x="10" y="202.5" width="170" height="170" as="geometry" />
        </mxCell>
        <mxCell id="uAOBnJKsqgyrsefBXau2-11" style="edgeStyle=none;rounded=0;orthogonalLoop=1;jettySize=auto;html=1;exitX=0;exitY=1;exitDx=0;exitDy=0;entryX=0;entryY=1;entryDx=0;entryDy=0;" parent="1" source="uAOBnJKsqgyrsefBXau2-7" target="uAOBnJKsqgyrsefBXau2-9" edge="1">
          <mxGeometry relative="1" as="geometry" />
        </mxCell>
        <mxCell id="uAOBnJKsqgyrsefBXau2-7" value="" style="ellipse;whiteSpace=wrap;html=1;aspect=fixed;fillColor=#FF8A00;" parent="1" vertex="1">
          <mxGeometry x="200" y="87.5" width="80" height="80" as="geometry" />
        </mxCell>
        <mxCell id="uAOBnJKsqgyrsefBXau2-8" value="&lt;font color=&quot;#ffffff&quot; style=&quot;font-size: 18px;&quot;&gt;ETAPAS&amp;nbsp;&lt;/font&gt;&lt;div&gt;&lt;font color=&quot;#ffffff&quot; style=&quot;font-size: 18px;&quot;&gt;DO SUCESSO&lt;/font&gt;&lt;/div&gt;" style="text;strokeColor=none;fillColor=none;html=1;fontSize=24;fontStyle=1;verticalAlign=middle;align=center;" parent="1" vertex="1">
          <mxGeometry x="-20" y="267.5" width="230" height="40" as="geometry" />
        </mxCell>
        <mxCell id="uAOBnJKsqgyrsefBXau2-9" value="&lt;font style=&quot;font-size: 36px;&quot;&gt;1&lt;/font&gt;" style="text;strokeColor=none;fillColor=none;html=1;fontSize=24;fontStyle=1;verticalAlign=middle;align=center;" parent="1" vertex="1">
          <mxGeometry x="225" y="107.5" width="30" height="40" as="geometry" />
        </mxCell>
        <mxCell id="uAOBnJKsqgyrsefBXau2-13" value="&lt;font color=&quot;#ffffff&quot; style=&quot;font-size: 18px;&quot;&gt;COMERCIAL&lt;/font&gt;" style="text;strokeColor=none;fillColor=none;html=1;fontSize=24;fontStyle=1;verticalAlign=middle;align=center;" parent="1" vertex="1">
          <mxGeometry x="360" y="107.5" width="30" height="40" as="geometry" />
        </mxCell>
        <mxCell id="uAOBnJKsqgyrsefBXau2-14" value="" style="rounded=1;whiteSpace=wrap;html=1;shadow=0;fillColor=#120080;" parent="1" vertex="1">
          <mxGeometry x="315" y="175" width="250" height="65" as="geometry" />
        </mxCell>
        <mxCell id="uAOBnJKsqgyrsefBXau2-15" style="edgeStyle=none;rounded=0;orthogonalLoop=1;jettySize=auto;html=1;exitX=0;exitY=1;exitDx=0;exitDy=0;entryX=0;entryY=1;entryDx=0;entryDy=0;" parent="1" source="uAOBnJKsqgyrsefBXau2-16" target="uAOBnJKsqgyrsefBXau2-17" edge="1">
          <mxGeometry relative="1" as="geometry" />
        </mxCell>
        <mxCell id="uAOBnJKsqgyrsefBXau2-16" value="" style="ellipse;whiteSpace=wrap;html=1;aspect=fixed;fillColor=#FF6B00;" parent="1" vertex="1">
          <mxGeometry x="265" y="167.5" width="80" height="80" as="geometry" />
        </mxCell>
        <mxCell id="uAOBnJKsqgyrsefBXau2-17" value="&lt;font style=&quot;font-size: 36px;&quot;&gt;2&lt;/font&gt;" style="text;strokeColor=none;fillColor=none;html=1;fontSize=24;fontStyle=1;verticalAlign=middle;align=center;" parent="1" vertex="1">
          <mxGeometry x="290" y="187.5" width="30" height="40" as="geometry" />
        </mxCell>
        <mxCell id="uAOBnJKsqgyrsefBXau2-18" value="&lt;font color=&quot;#ffffff&quot; style=&quot;font-size: 18px;&quot;&gt;ALINHAMENTO&lt;/font&gt;" style="text;strokeColor=none;fillColor=none;html=1;fontSize=24;fontStyle=1;verticalAlign=middle;align=center;" parent="1" vertex="1">
          <mxGeometry x="425" y="187.5" width="30" height="40" as="geometry" />
        </mxCell>
        <mxCell id="uAOBnJKsqgyrsefBXau2-19" value="" style="rounded=1;whiteSpace=wrap;html=1;shadow=0;fillColor=#1b00c4;" parent="1" vertex="1">
          <mxGeometry x="370" y="255" width="250" height="65" as="geometry" />
        </mxCell>
        <mxCell id="uAOBnJKsqgyrsefBXau2-20" style="edgeStyle=none;rounded=0;orthogonalLoop=1;jettySize=auto;html=1;exitX=0;exitY=1;exitDx=0;exitDy=0;entryX=0;entryY=1;entryDx=0;entryDy=0;" parent="1" source="uAOBnJKsqgyrsefBXau2-21" target="uAOBnJKsqgyrsefBXau2-22" edge="1">
          <mxGeometry relative="1" as="geometry" />
        </mxCell>
        <mxCell id="uAOBnJKsqgyrsefBXau2-21" value="" style="ellipse;whiteSpace=wrap;html=1;aspect=fixed;fillColor=#DD7800;" parent="1" vertex="1">
          <mxGeometry x="320" y="247.5" width="80" height="80" as="geometry" />
        </mxCell>
        <mxCell id="uAOBnJKsqgyrsefBXau2-22" value="&lt;font style=&quot;font-size: 36px;&quot;&gt;3&lt;/font&gt;" style="text;strokeColor=none;fillColor=none;html=1;fontSize=24;fontStyle=1;verticalAlign=middle;align=center;" parent="1" vertex="1">
          <mxGeometry x="345" y="267.5" width="30" height="40" as="geometry" />
        </mxCell>
        <mxCell id="uAOBnJKsqgyrsefBXau2-23" value="&lt;font color=&quot;#ffffff&quot; style=&quot;font-size: 18px;&quot;&gt;TIME INTERNO&lt;/font&gt;" style="text;strokeColor=none;fillColor=none;html=1;fontSize=24;fontStyle=1;verticalAlign=middle;align=center;" parent="1" vertex="1">
          <mxGeometry x="480" y="267.5" width="30" height="40" as="geometry" />
        </mxCell>
        <mxCell id="uAOBnJKsqgyrsefBXau2-24" value="" style="rounded=1;whiteSpace=wrap;html=1;shadow=0;fillColor=#0B0050;" parent="1" vertex="1">
          <mxGeometry x="315" y="337.5" width="250" height="65" as="geometry" />
        </mxCell>
        <mxCell id="uAOBnJKsqgyrsefBXau2-25" style="edgeStyle=none;rounded=0;orthogonalLoop=1;jettySize=auto;html=1;exitX=0;exitY=1;exitDx=0;exitDy=0;entryX=0;entryY=1;entryDx=0;entryDy=0;" parent="1" source="uAOBnJKsqgyrsefBXau2-26" target="uAOBnJKsqgyrsefBXau2-27" edge="1">
          <mxGeometry relative="1" as="geometry" />
        </mxCell>
        <mxCell id="uAOBnJKsqgyrsefBXau2-26" value="" style="ellipse;whiteSpace=wrap;html=1;aspect=fixed;fillColor=#FFA100;" parent="1" vertex="1">
          <mxGeometry x="265" y="330" width="80" height="80" as="geometry" />
        </mxCell>
        <mxCell id="uAOBnJKsqgyrsefBXau2-27" value="&lt;font style=&quot;font-size: 36px;&quot;&gt;4&lt;/font&gt;" style="text;strokeColor=none;fillColor=none;html=1;fontSize=24;fontStyle=1;verticalAlign=middle;align=center;" parent="1" vertex="1">
          <mxGeometry x="290" y="350" width="30" height="40" as="geometry" />
        </mxCell>
        <mxCell id="uAOBnJKsqgyrsefBXau2-28" value="&lt;font color=&quot;#ffffff&quot; style=&quot;font-size: 18px;&quot;&gt;ENTREVISTAS&lt;/font&gt;" style="text;strokeColor=none;fillColor=none;html=1;fontSize=24;fontStyle=1;verticalAlign=middle;align=center;" parent="1" vertex="1">
          <mxGeometry x="425" y="350" width="30" height="40" as="geometry" />
        </mxCell>
        <mxCell id="uAOBnJKsqgyrsefBXau2-29" value="" style="rounded=1;whiteSpace=wrap;html=1;shadow=0;fillColor=#001D99;" parent="1" vertex="1">
          <mxGeometry x="250" y="417.5" width="250" height="65" as="geometry" />
        </mxCell>
        <mxCell id="uAOBnJKsqgyrsefBXau2-30" style="edgeStyle=none;rounded=0;orthogonalLoop=1;jettySize=auto;html=1;exitX=0;exitY=1;exitDx=0;exitDy=0;entryX=0;entryY=1;entryDx=0;entryDy=0;" parent="1" source="uAOBnJKsqgyrsefBXau2-31" target="uAOBnJKsqgyrsefBXau2-32" edge="1">
          <mxGeometry relative="1" as="geometry" />
        </mxCell>
        <mxCell id="uAOBnJKsqgyrsefBXau2-31" value="" style="ellipse;whiteSpace=wrap;html=1;aspect=fixed;fillColor=#FF8A00;" parent="1" vertex="1">
          <mxGeometry x="200" y="410" width="80" height="80" as="geometry" />
        </mxCell>
        <mxCell id="uAOBnJKsqgyrsefBXau2-32" value="&lt;font style=&quot;font-size: 36px;&quot;&gt;5&lt;/font&gt;" style="text;strokeColor=none;fillColor=none;html=1;fontSize=24;fontStyle=1;verticalAlign=middle;align=center;" parent="1" vertex="1">
          <mxGeometry x="225" y="430" width="30" height="40" as="geometry" />
        </mxCell>
        <mxCell id="uAOBnJKsqgyrsefBXau2-33" value="&lt;font color=&quot;#ffffff&quot; style=&quot;font-size: 18px;&quot;&gt;EXPERIÊNCIAS&lt;/font&gt;" style="text;strokeColor=none;fillColor=none;html=1;fontSize=24;fontStyle=1;verticalAlign=middle;align=center;" parent="1" vertex="1">
          <mxGeometry x="370" y="430" width="30" height="40" as="geometry" />
        </mxCell>
        <mxCell id="uAOBnJKsqgyrsefBXau2-45" value="" style="endArrow=none;html=1;rounded=0;fontSize=12;startSize=8;endSize=8;curved=1;entryX=0;entryY=1;entryDx=0;entryDy=0;strokeWidth=5;" parent="1" target="uAOBnJKsqgyrsefBXau2-7" edge="1">
          <mxGeometry width="50" height="50" relative="1" as="geometry">
            <mxPoint x="150" y="225" as="sourcePoint" />
            <mxPoint x="200" y="175" as="targetPoint" />
          </mxGeometry>
        </mxCell>
        <mxCell id="uAOBnJKsqgyrsefBXau2-47" value="" style="endArrow=none;html=1;rounded=0;fontSize=12;startSize=8;endSize=8;curved=1;entryX=0;entryY=0.5;entryDx=0;entryDy=0;strokeWidth=5;" parent="1" target="uAOBnJKsqgyrsefBXau2-16" edge="1">
          <mxGeometry width="50" height="50" relative="1" as="geometry">
            <mxPoint x="170" y="255" as="sourcePoint" />
            <mxPoint x="220" y="205" as="targetPoint" />
          </mxGeometry>
        </mxCell>
        <mxCell id="uAOBnJKsqgyrsefBXau2-48" value="" style="endArrow=none;html=1;rounded=0;fontSize=12;startSize=8;endSize=8;curved=1;entryX=0;entryY=0.5;entryDx=0;entryDy=0;exitX=1;exitY=0.5;exitDx=0;exitDy=0;strokeWidth=5;" parent="1" source="uAOBnJKsqgyrsefBXau2-1" target="uAOBnJKsqgyrsefBXau2-21" edge="1">
          <mxGeometry width="50" height="50" relative="1" as="geometry">
            <mxPoint x="180" y="302" as="sourcePoint" />
            <mxPoint x="275" y="255" as="targetPoint" />
          </mxGeometry>
        </mxCell>
        <mxCell id="uAOBnJKsqgyrsefBXau2-49" value="" style="endArrow=none;html=1;rounded=0;fontSize=12;startSize=8;endSize=8;curved=1;entryX=0;entryY=0;entryDx=0;entryDy=0;exitX=0.977;exitY=0.632;exitDx=0;exitDy=0;exitPerimeter=0;strokeWidth=5;" parent="1" source="uAOBnJKsqgyrsefBXau2-1" target="uAOBnJKsqgyrsefBXau2-26" edge="1">
          <mxGeometry width="50" height="50" relative="1" as="geometry">
            <mxPoint x="170" y="337.5" as="sourcePoint" />
            <mxPoint x="310" y="337.5" as="targetPoint" />
          </mxGeometry>
        </mxCell>
        <mxCell id="uAOBnJKsqgyrsefBXau2-51" value="" style="endArrow=none;html=1;rounded=0;fontSize=12;startSize=8;endSize=8;curved=1;exitX=1;exitY=1;exitDx=0;exitDy=0;entryX=0;entryY=0;entryDx=0;entryDy=0;strokeWidth=5;" parent="1" source="uAOBnJKsqgyrsefBXau2-1" target="uAOBnJKsqgyrsefBXau2-31" edge="1">
          <mxGeometry width="50" height="50" relative="1" as="geometry">
            <mxPoint x="150" y="402.5" as="sourcePoint" />
            <mxPoint x="200" y="352.5" as="targetPoint" />
          </mxGeometry>
        </mxCell>
      </root>
    </mxGraphModel>
  </diagram>
</mxfile>
